HIERARCHY
ROOT hip
{
	OFFSET 0.000000 0.000000 0.000000 
	CHANNELS 6 Xposition Yposition Zposition Xrotation Zrotation Yrotation
	JOINT abdomen
	{
		OFFSET 0.000000 3.402643 0.000000 
		CHANNELS 3 Xrotation Zrotation Yrotation
		JOINT chest
		{
			OFFSET 0.000000 8.438565 -0.680529 
			CHANNELS 3 Xrotation Zrotation Yrotation
			JOINT neck
			{
				OFFSET 0.000000 10.207942 -0.272212 
				CHANNELS 3 Xrotation Zrotation Yrotation
				JOINT head
				{
					OFFSET 0.000000 3.130431 0.000000 
					CHANNELS 3 Xrotation Zrotation Yrotation
					End Site
					{
						OFFSET 0.000000 3.130435 0.000000 
					}
				}
			}
			JOINT lCollar
			{
				OFFSET 3.470700 6.669187 -0.816635 
				CHANNELS 3 Yrotation Zrotation Xrotation
				JOINT lShldr
				{
					OFFSET 3.198488 0.000000 0.000000 
					CHANNELS 3 Zrotation Yrotation Xrotation
					JOINT lForeArm
					{
						OFFSET 10.139888 0.000000 0.000000 
						CHANNELS 3 Yrotation Zrotation Xrotation
						JOINT lHand
						{
							OFFSET 8.370511 0.000000 0.000000 
							CHANNELS 3 Zrotation Yrotation Xrotation
							End Site
							{
								OFFSET 4.083176 0.000000 0.000000 
							}
						}
					}
				}
			}
			JOINT rCollar
			{
				OFFSET -3.470700 6.669187 -0.816635 
				CHANNELS 3 Yrotation Zrotation Xrotation
				JOINT rShldr
				{
					OFFSET -3.198488 0.000000 0.000000 
					CHANNELS 3 Zrotation Yrotation Xrotation
					JOINT rForeArm
					{
						OFFSET -10.139888 0.000000 0.000000 
						CHANNELS 3 Yrotation Zrotation Xrotation
						JOINT rHand
						{
							OFFSET -8.370511 0.000000 0.000000 
							CHANNELS 3 Zrotation Yrotation Xrotation
							End Site
							{
								OFFSET -4.083176 0.000000 0.000000 
							}
						}
					}
				}
			}
		}
	}
	JOINT lThigh
	{
		OFFSET 5.308129 -1.633274 1.361059 
		CHANNELS 3 Xrotation Zrotation Yrotation
		JOINT lShin
		{
			OFFSET -2.041588 -20.007561 0.000000 
			CHANNELS 3 Xrotation Zrotation Yrotation
			JOINT lFoot
			{
				OFFSET 0.000000 -19.190928 -1.224953 
				CHANNELS 3 Xrotation Yrotation Zrotation
				End Site
				{
					OFFSET 0.000000 -2.449906 4.627600 
				}
			}
		}
	}
	JOINT rThigh
	{
		OFFSET -5.308129 -1.633274 1.361059 
		CHANNELS 3 Xrotation Zrotation Yrotation
		JOINT rShin
		{
			OFFSET 2.041588 -20.007561 0.000000 
			CHANNELS 3 Xrotation Zrotation Yrotation
			JOINT rFoot
			{
				OFFSET 0.000000 -19.190928 -1.224953 
				CHANNELS 3 Xrotation Yrotation Zrotation
				End Site
				{
					OFFSET 0.000000 -2.449906 4.627600 
				}
			}
		}
	}
}
MOTION
Frames: 16
Frame Time: 0.033333
5.221138 52.321564 -103.494698 -9.003905 -4.003906 168.661423 30.065935 -7.048505 -2.459758 -24.404299 13.857422 5.166016 51.063168 8.107644 2.471410 -73.251953 -9.189452 2.119141 2.000000 -2.000000 0.000000 -93.662109 27.041016 -8.310547 -55.679451 -1.640323 -2.179512 -3.047571 68.083115 -2.335108 -2.000000 2.000000 0.000000 81.435547 -20.195313 -13.320312 51.426781 1.698904 -2.010149 18.051254 -56.977276 -30.707432 -25.764656 4.830049 18.679279 23.692957 -4.887275 -2.222286 1.306691 1.254449 3.370955 10.148583 -5.814931 2.492317 -9.515302 5.243455 -0.591416 0.688924 -2.290756 -1.124030 
5.408542 51.698704 -106.904076 -10.585938 -3.115234 166.503906 29.629450 -7.145624 -1.923776 -24.072266 13.144532 5.712891 51.063168 8.107644 2.471410 -75.175781 -7.578124 3.270196 2.000000 -2.000000 0.000000 -97.109375 30.380859 -14.999999 -56.018559 -1.302036 -2.081905 -2.309059 69.652245 -2.180406 -2.000000 2.000000 0.000000 80.322266 -18.515625 -13.030445 51.602566 1.698904 -2.010149 19.614662 -56.366470 -31.964178 -28.757109 4.481524 15.053197 17.016230 -5.071431 -1.665095 3.001271 1.923771 2.130469 9.712719 -5.348611 3.432050 -3.514025 5.234938 0.090197 -2.266446 -1.079353 -1.423173 
5.570836 50.833534 -110.300858 -11.464843 -2.597656 165.565964 29.768307 -8.014470 -1.806730 -24.072266 13.144532 5.888671 51.063168 8.107644 2.471410 -77.451172 -6.113281 3.729429 2.000000 -2.000000 0.000000 -97.265625 33.417969 -17.562981 -56.194363 -1.282537 -2.083042 1.432924 71.403740 1.354877 -2.000000 2.000000 0.000000 81.005859 -17.246092 -13.554688 51.602585 1.689155 -2.010716 19.190216 -55.535973 -31.463266 -31.498100 3.826562 9.801525 10.830544 -5.194447 -1.161064 7.132728 3.534729 1.227155 11.284011 -5.181841 3.600846 -1.950078 5.232755 0.064899 -3.675894 -0.869129 -1.429759 
5.714198 49.665123 -113.687439 -11.455078 -2.783203 166.123047 30.282484 -9.042843 -1.793395 -24.238281 13.496094 5.878907 51.063168 8.107644 2.471410 -80.029297 -5.410156 2.949219 2.000000 -2.000000 0.000000 -95.019531 36.240234 -17.123133 -56.370144 -1.282537 -2.083042 5.368371 72.890778 4.982534 -2.000000 2.000000 0.000000 83.173828 -16.689453 -15.041866 51.602585 1.689155 -2.010716 18.200109 -54.615475 -30.495083 -33.746475 2.870884 4.145426 5.189556 -5.250769 -0.681664 11.166284 5.949303 0.629083 16.194347 -5.543379 3.789155 -3.513994 5.234957 0.090196 -4.160683 -2.435592 -3.673400 
5.844807 48.400139 -117.066040 -11.103515 -3.281250 167.079514 30.841965 -10.342266 -1.952142 -24.414064 13.681642 5.859375 51.063168 8.107644 2.471410 -83.251953 -5.400390 1.591797 2.000000 -2.000000 0.000000 -92.451172 37.207031 -15.439455 -56.370136 -1.292287 -2.082473 9.555412 73.394737 8.395091 -2.000000 2.000000 0.000000 85.039063 -16.259766 -16.369921 51.604130 1.858869 -2.069295 17.717800 -53.813923 -29.791523 -34.644386 2.069749 0.289978 3.062584 -5.784218 -0.420140 9.959649 7.266173 1.602643 22.550852 -5.876049 3.401815 -8.627656 5.273061 -0.528888 -0.897696 -4.846974 -5.598001 
5.974549 48.895649 -120.436890 -10.761719 -3.642578 168.358749 31.250574 -10.557642 -2.297418 -24.404297 14.208985 5.725054 51.063168 8.107644 2.471410 -82.792969 -5.927734 1.289063 2.000000 -2.000000 0.000000 -91.611328 35.224609 -12.718976 -55.842514 -1.301467 -2.072159 10.132942 72.042862 8.110288 -2.000000 2.000000 0.000000 84.746094 -17.841797 -16.621094 51.426800 1.689155 -2.010716 18.355169 -54.003113 -29.635990 -32.380875 1.132292 1.208656 6.779560 -5.765440 -0.748481 7.858000 6.249746 2.239358 22.629236 -5.993214 2.276376 -7.379014 5.253669 -0.362945 9.412835 -6.687407 -6.247260 
6.104306 49.123314 -123.806580 -10.224609 -4.003906 169.619141 31.835060 -10.776427 -2.631816 -24.375002 14.736329 5.781250 51.063168 8.107644 2.471410 -82.529297 -6.425780 1.181641 2.000000 -2.000000 0.000000 -90.761719 32.597656 -10.078125 -55.314610 -1.319828 -2.051530 10.689520 70.866982 7.952665 -2.000000 2.000000 0.000000 84.599609 -19.179689 -17.083286 51.426781 1.698904 -2.010149 19.094645 -54.136360 -29.711548 -29.877525 0.028759 2.115868 10.678279 -5.700722 -1.108000 5.648464 4.899274 2.899127 22.740488 -6.072692 0.872244 -5.978958 5.229945 0.234895 19.949911 -7.904262 -6.261502 
6.234048 49.413990 -127.177444 -9.697266 -4.355469 170.868393 32.263832 -11.126261 -3.092260 -24.531252 15.273438 5.791017 51.063168 8.107644 2.471410 -82.060547 -6.953125 0.869141 2.000000 -2.000000 0.000000 -90.019531 30.039063 -7.338860 -54.786964 -1.348507 -2.040078 11.748192 69.649025 8.345189 -2.000000 2.000000 0.000000 84.082031 -20.537109 -17.405769 51.426781 1.698904 -2.010149 19.597935 -54.157330 -29.342480 -27.817680 -1.113092 3.463159 14.365271 -5.263068 -1.669587 3.646495 3.048743 3.460727 22.963995 -6.385116 0.084011 -3.348003 5.234182 0.279865 30.401930 -9.765615 -6.360231 
6.363790 49.759823 -130.548279 170.820328 -175.341797 -7.881651 32.681942 -11.338161 -3.446956 -24.521484 15.615236 5.822941 51.063168 8.107644 2.471410 -81.796875 -7.460937 0.742187 2.000000 -2.000000 0.000000 -89.521484 27.509766 -5.283204 -54.447601 -1.666729 -2.129079 13.455945 68.285332 9.022193 -2.000000 2.000000 0.000000 83.935547 -21.894533 -17.822266 51.250717 1.708084 -1.999836 20.710999 -54.358955 -29.666889 -25.588446 -2.333450 3.599344 17.928516 -5.627697 -1.701481 1.940251 2.145629 4.414029 23.188782 -6.512955 -0.785243 -3.534007 5.242506 0.029618 41.229107 -11.323323 -5.951921 
6.523631 51.118752 -133.922607 171.181656 -175.683594 -7.090579 32.984055 -9.811399 -4.365515 -24.492189 16.318359 5.878906 51.063168 8.107644 2.471410 -77.910156 -8.925781 2.539063 2.000000 -2.000000 0.000000 -89.052734 22.558596 -1.806641 -53.733021 -1.565260 -2.066548 6.731667 68.240372 3.989175 -2.000000 2.000000 0.000000 81.591797 -22.822264 -16.195192 51.778904 1.680543 -2.030774 19.195452 -56.347279 -27.107784 -18.118444 -2.655350 3.500645 12.258883 -5.731915 -1.221173 2.385983 1.429729 4.517808 6.919554 -7.241682 -2.296020 15.298904 4.614398 1.283977 34.969727 -10.114734 -1.300417 
6.707898 52.979198 -137.302704 171.718750 -176.542969 -6.377542 33.124699 -7.830471 -5.383579 -24.267580 17.011721 6.181642 51.063168 8.107644 2.471410 -74.853516 -10.078123 4.257813 2.000000 -2.000000 0.000000 -88.701172 17.460938 0.361328 -53.745422 -1.884050 -2.165295 2.375106 67.225143 0.238630 -2.000000 2.000000 0.000000 79.384766 -23.457033 -14.525373 52.306530 1.671363 -2.041086 18.735584 -57.255852 -25.914122 -12.713184 -2.479820 3.577507 9.964680 -5.379799 -1.295883 4.729607 0.658374 4.208534 -9.772306 -8.746874 -3.993667 34.104870 4.213820 2.557216 24.983175 -9.221444 2.570599 
6.922774 53.340015 -140.690903 172.255875 -177.587891 -6.025801 33.273853 -5.834466 -6.393224 -24.052734 17.695313 6.298829 51.063168 8.107644 2.471410 -72.656250 -9.931640 5.263672 2.000000 -2.000000 0.000000 -87.480469 12.626954 2.687683 -54.617821 -1.548509 -2.282653 -1.349504 64.746513 -3.903238 -2.000000 2.000000 0.000000 78.291016 -24.033203 -13.060619 52.487370 1.672409 -2.226818 20.651276 -56.507854 -27.476233 -5.196093 -2.028399 2.877611 3.612474 -5.478930 -0.698407 5.196927 0.628115 3.953430 -21.989738 -9.784103 -4.046967 44.307537 3.680938 3.298054 17.030619 -9.328108 5.729035 
7.174461 53.237309 -144.090698 172.431656 -178.632813 -5.644764 33.217560 -4.161105 -7.186058 -23.837891 18.388674 6.435547 51.063168 8.107644 2.471410 -71.035156 -8.681640 5.174307 2.000000 -2.000000 0.000000 -85.537109 7.539063 4.552064 -55.855499 -1.640891 -2.189258 -5.327428 61.260265 -8.615088 -2.000000 2.000000 0.000000 78.242188 -24.228516 -11.699219 52.471489 1.502785 -2.001998 22.883211 -55.419682 -29.260933 2.287059 -1.371942 1.537970 -3.551811 -5.306096 0.131354 4.506533 1.039724 3.856881 -26.965792 -9.792119 -4.437671 41.134525 3.768829 3.367048 10.905976 -9.409020 5.734754 
7.469169 52.640278 -147.502060 172.607437 -179.501953 -5.234460 33.294792 -3.046704 -7.714098 -23.808596 18.916016 6.308593 51.063168 8.107644 2.471410 -70.195313 -7.783203 4.882813 2.000000 -2.000000 0.000000 -83.095703 2.363281 6.074218 -57.439194 -1.605301 -2.250005 -7.322058 57.917034 -11.373533 -2.000000 2.000000 0.000000 78.720703 -24.511721 -11.420067 52.834438 1.653002 -2.061712 25.030682 -53.757008 -31.779734 9.236020 -0.975967 0.443138 -7.924387 -5.433796 0.835094 2.948622 1.139301 3.480869 -28.159586 -9.481081 -3.349934 29.533312 4.510689 1.962833 3.803361 -8.861578 5.755294 
7.858190 51.719200 -150.950424 172.265640 179.824219 -4.951142 32.923893 -3.501015 -7.613923 -23.603518 19.248047 5.888671 51.063168 8.107644 2.471410 -70.517578 -7.578125 3.104181 2.000000 -2.000000 0.000000 -80.644531 -2.753906 8.017111 -58.671040 -1.578891 -2.300438 -8.026541 54.769100 -12.879888 -2.000000 2.000000 0.000000 80.791016 -24.931641 -12.207029 52.647259 1.512534 -2.001431 26.589930 -52.423214 -33.247910 15.412627 -0.243318 -0.538739 -12.520411 -5.405602 0.945326 2.351098 1.083440 3.173236 -27.855509 -8.767511 -3.717038 16.124300 4.948568 1.546626 -1.736984 -7.804911 4.512349 
8.366050 50.689682 -154.441635 171.718750 179.121094 -4.521335 32.291824 -4.936939 -6.895783 -23.789063 19.433596 4.954422 51.063168 8.107644 2.471410 -71.777344 -7.578125 0.351563 2.000000 -2.000000 0.000000 -80.107422 -7.666016 9.716797 -59.543144 -1.731934 -2.409148 -7.475049 53.689362 -12.942774 -2.000000 2.000000 0.000000 83.222656 -26.406248 -14.301216 52.471478 1.512534 -2.001431 27.154045 -51.384029 -34.032024 20.341650 1.308579 -1.025648 -14.799169 -5.354684 1.144849 1.164817 0.796541 2.550408 -28.254061 -7.868803 -4.229752 7.659501 5.141999 0.532700 -4.179961 -6.198125 3.700114 
